<svg xmlns="http://www.w3.org/2000/svg" xmlns:xlink="http://www.w3.org/1999/xlink" width="500" zoomAndPan="magnify" viewBox="0 0 375 374.999991" height="500" preserveAspectRatio="xMidYMid meet" version="1.0"><defs><g/><clipPath id="2434c4d777"><path d="M 87.054688 53.597656 L 287.945312 53.597656 L 287.945312 321.457031 L 87.054688 321.457031 Z M 87.054688 53.597656 " clip-rule="nonzero"/></clipPath><clipPath id="a57b74a01c"><path d="M 158.667969 136.816406 L 170.253906 136.816406 L 170.253906 162.507812 L 158.667969 162.507812 Z M 158.667969 136.816406 " clip-rule="nonzero"/></clipPath><clipPath id="52e420ec16"><path d="M 167.410156 138.480469 C 164.894531 152.519531 162.910156 159.589844 161.730469 161.410156 C 161.410156 162 161.144531 162.320312 160.769531 162.429688 C 160.285156 162.535156 159.480469 162.320312 159.105469 161.894531 C 158.570312 161.195312 158.625 159.480469 158.785156 157.980469 C 159.054688 155.730469 160.285156 152.519531 161.464844 149.679688 C 162.695312 146.570312 164.945312 142.230469 166.070312 140.089844 C 166.660156 138.964844 166.980469 138.054688 167.519531 137.519531 C 167.894531 137.144531 168.320312 136.820312 168.75 136.875 C 169.179688 136.875 170.035156 137.464844 170.144531 137.894531 C 170.304688 138.375 169.929688 139.285156 169.554688 139.554688 C 169.125 139.820312 168.160156 139.714844 167.785156 139.394531 C 167.464844 139.179688 167.25 138.535156 167.304688 138.105469 C 167.355469 137.730469 167.730469 137.144531 168.105469 136.980469 C 168.535156 136.820312 169.5 137.035156 169.875 137.355469 C 170.144531 137.625 170.25 138.054688 170.195312 138.695312 C 169.980469 140.355469 166.5 144.910156 165.269531 147.695312 C 164.25 149.894531 163.554688 151.605469 163.019531 153.804688 C 162.375 156.160156 162.320312 160.179688 161.730469 161.410156 C 161.570312 161.894531 161.410156 162.105469 161.089844 162.269531 C 160.714844 162.429688 160.019531 162.535156 159.695312 162.320312 C 159.269531 162.054688 158.894531 161.355469 158.894531 160.5 C 158.785156 158.144531 162.160156 151.769531 163.070312 147.75 C 163.875 144.320312 163.445312 139.5 164.464844 137.945312 C 164.945312 137.25 165.695312 136.820312 166.179688 136.929688 C 166.660156 136.980469 167.410156 138.480469 167.410156 138.480469 " clip-rule="nonzero"/></clipPath><clipPath id="a95db7f785"><path d="M 103.871094 82.015625 L 256.71875 82.015625 L 256.71875 257.308594 L 103.871094 257.308594 Z M 103.871094 82.015625 " clip-rule="nonzero"/></clipPath><clipPath id="0e32685dcb"><path d="M 103.875 171.160156 C 109.660156 148.605469 113.304688 145.070312 117.160156 141.804688 C 121.179688 138.375 127.445312 134.679688 131.355469 133.285156 C 133.769531 132.375 137.089844 133.5 137.625 132.269531 C 138.375 130.769531 132.964844 126.695312 132.855469 123.75 C 132.695312 120.695312 136.605469 117.214844 137.195312 114.375 C 137.625 112.285156 135.964844 110.355469 136.980469 108.535156 C 138.589844 105.535156 148.019531 100.929688 150.269531 100.554688 C 150.910156 100.445312 151.285156 100.980469 151.660156 100.820312 C 152.089844 100.605469 152.035156 99.535156 152.464844 99.054688 C 152.945312 98.464844 153.804688 98.355469 154.5 97.554688 C 155.679688 96.214844 155.945312 92.894531 157.929688 90.804688 C 161.035156 87.644531 168.644531 83.25 173.25 82.554688 C 176.730469 82.019531 179.304688 83.945312 182.839844 84.429688 C 187.179688 84.964844 192.910156 84.214844 197.304688 85.339844 C 201.375 86.355469 206.730469 89.839844 208.339844 90.429688 C 208.820312 90.589844 208.980469 90.480469 209.25 90.589844 C 209.570312 90.75 209.730469 91.019531 210.160156 91.230469 C 211.019531 91.714844 213.214844 92.304688 214.179688 93.054688 C 214.875 93.644531 214.875 94.339844 215.625 95.089844 C 217.070312 96.535156 220.339844 98.035156 223.019531 100.339844 C 226.929688 103.769531 234.214844 110.144531 236.304688 114.269531 C 237.535156 116.785156 236.089844 119.570312 237.480469 121.230469 C 239.035156 123.054688 243.214844 122.144531 245.839844 124.230469 C 249.695312 127.394531 255.480469 135.105469 256.179688 141.214844 C 256.875 147.480469 252.269531 157.394531 249.375 161.464844 C 247.660156 163.875 244.554688 163.875 243.644531 165.964844 C 242.570312 168.429688 244.660156 173.144531 244.394531 175.605469 C 244.230469 177.214844 243.320312 179.304688 243.375 179.410156 C 243.375 179.519531 244.019531 181.394531 244.019531 181.445312 C 244.019531 181.445312 244.125 182.839844 244.179688 183.535156 C 244.230469 184.230469 244.339844 185.625 244.339844 185.625 C 244.339844 185.679688 244.125 187.019531 244.019531 187.714844 C 243.910156 188.410156 243.695312 189.75 243.695312 189.804688 C 243.695312 189.804688 243.105469 191.089844 242.839844 191.730469 C 242.570312 192.375 242.035156 193.605469 242.035156 193.660156 C 241.980469 193.660156 237.160156 201.480469 234.535156 205.605469 C 231.75 210.054688 228.804688 214.714844 225.804688 219.429688 C 222.644531 224.410156 218.894531 230.035156 216.105469 234.644531 C 213.855469 238.394531 210.75 244.285156 210.375 245.035156 C 210.320312 245.089844 210.320312 245.144531 210.269531 245.195312 C 210.160156 245.304688 208.5 248.355469 208.445312 248.410156 C 208.445312 248.410156 207.644531 249.535156 207.214844 250.070312 C 206.785156 250.660156 205.980469 251.730469 205.929688 251.785156 C 205.929688 251.785156 204.855469 252.644531 204.320312 253.070312 C 203.785156 253.554688 202.714844 254.410156 202.660156 254.410156 C 202.660156 254.410156 201.429688 255 200.785156 255.320312 C 200.144531 255.589844 198.910156 256.179688 198.910156 256.230469 C 198.855469 256.230469 197.519531 256.5 196.820312 256.605469 C 196.125 256.769531 194.785156 257.035156 194.785156 257.035156 C 194.730469 257.035156 193.394531 256.980469 192.695312 256.980469 C 192 256.929688 190.605469 256.875 190.554688 256.875 C 190.554688 256.875 189.214844 256.5 188.570312 256.285156 C 187.875 256.070312 186.589844 255.695312 186.535156 255.695312 C 186.535156 255.695312 185.355469 255 184.714844 254.625 C 184.125 254.304688 182.945312 253.605469 182.894531 253.605469 C 182.894531 253.554688 181.929688 252.644531 181.394531 252.160156 C 180.910156 251.679688 179.894531 250.714844 179.894531 250.660156 C 179.894531 250.660156 179.144531 249.480469 178.769531 248.894531 C 178.394531 248.304688 177.644531 247.179688 177.644531 247.125 C 177.644531 247.125 177.214844 245.785156 177 245.144531 C 176.785156 244.5 176.304688 243.160156 176.304688 243.160156 C 176.304688 243.105469 176.195312 241.769531 176.144531 241.070312 C 176.089844 240.375 175.980469 238.980469 175.980469 238.980469 C 175.980469 238.929688 176.519531 237.589844 176.304688 237.054688 C 175.980469 236.464844 174.695312 236.355469 173.894531 235.820312 C 172.980469 235.179688 171.75 234.054688 171.214844 233.410156 C 170.894531 233.089844 170.785156 232.769531 170.570312 232.554688 C 170.464844 232.394531 170.304688 232.179688 170.144531 232.179688 C 170.035156 232.179688 170.035156 232.285156 169.875 232.394531 C 169.554688 232.605469 168.160156 233.519531 168.160156 233.570312 C 168.105469 233.570312 166.820312 234.054688 166.179688 234.269531 C 165.535156 234.535156 164.25 235.019531 164.195312 235.019531 C 164.195312 235.019531 162.804688 235.179688 162.105469 235.285156 C 161.410156 235.339844 160.070312 235.5 160.019531 235.5 C 160.019531 235.5 158.625 235.339844 157.929688 235.230469 C 157.230469 235.179688 155.894531 234.964844 155.839844 234.964844 C 155.839844 234.964844 154.554688 234.480469 153.910156 234.214844 C 153.214844 233.945312 151.929688 233.464844 151.929688 233.464844 C 151.875 233.464844 150.75 232.660156 150.214844 232.285156 C 149.625 231.855469 148.5 231.054688 148.5 231.054688 C 148.5 231.054688 148.5 231.054688 148.445312 231.054688 C 148.445312 231.054688 147.535156 229.980469 147.105469 229.5 C 146.625 228.964844 145.714844 227.894531 145.714844 227.894531 C 145.714844 227.894531 145.605469 227.570312 145.445312 227.355469 C 144.964844 226.820312 143.519531 226.179688 142.285156 225.105469 C 140.089844 223.125 134.144531 216.054688 134.089844 216 C 134.089844 216 133.339844 214.820312 132.964844 214.230469 C 132.535156 213.644531 131.785156 212.519531 131.785156 212.464844 C 131.785156 212.464844 131.304688 211.179688 131.089844 210.480469 C 130.875 209.839844 130.394531 208.5 130.394531 208.5 C 130.394531 208.445312 130.230469 207.105469 130.179688 206.410156 C 130.125 205.714844 129.964844 204.320312 129.964844 204.269531 C 129.964844 204.269531 130.179688 202.875 130.285156 202.179688 C 130.394531 201.480469 130.605469 200.144531 130.605469 200.089844 C 130.605469 200.089844 131.410156 199.179688 131.195312 198.644531 C 130.554688 197.195312 121.5 196.394531 118.339844 193.875 C 115.605469 191.730469 113.570312 186.214844 112.660156 185.355469 C 112.394531 185.144531 112.339844 185.25 112.125 185.035156 C 110.945312 183.910156 103.875 171.160156 103.875 171.160156 " clip-rule="nonzero"/></clipPath></defs><g clip-path="url(#2434c4d777)"><path fill="#f7931a" d="M 177.257812 316.050781 C 101.171875 205.855469 87.050781 194.542969 87.050781 154.046875 C 87.050781 98.570312 132.0625 53.597656 187.589844 53.597656 C 243.113281 53.597656 288.128906 98.570312 288.128906 154.046875 C 288.128906 194.542969 274.003906 205.855469 197.921875 316.050781 C 192.929688 323.257812 182.25 323.257812 177.257812 316.050781 Z M 177.257812 316.050781 " fill-opacity="1" fill-rule="nonzero"/></g><path fill="#ffffff" d="M 233.402344 133.070312 C 231.917969 117.621094 218.558594 112.441406 201.703125 110.960938 L 201.703125 89.527344 L 188.648438 89.53125 L 188.644531 110.402344 C 185.214844 110.398438 181.710938 110.46875 178.214844 110.542969 L 178.222656 89.53125 L 165.167969 89.53125 L 165.164062 110.960938 C 162.339844 111.015625 159.558594 111.074219 156.851562 111.070312 L 156.851562 111.003906 L 138.835938 110.996094 L 138.839844 124.933594 C 138.839844 124.933594 148.488281 124.746094 148.328125 124.921875 C 153.617188 124.925781 155.332031 127.992188 155.835938 130.644531 L 155.839844 155.066406 C 156.203125 155.066406 156.675781 155.082031 157.222656 155.152344 L 155.839844 155.15625 L 155.839844 189.363281 C 155.605469 191.023438 154.625 193.675781 150.925781 193.683594 C 151.097656 193.828125 141.4375 193.683594 141.4375 193.683594 L 138.84375 209.261719 L 155.84375 209.261719 C 159 209.269531 162.113281 209.324219 165.164062 209.339844 L 165.167969 231.019531 L 178.21875 231.015625 L 178.214844 209.578125 C 181.800781 209.644531 185.265625 209.667969 188.652344 209.671875 L 188.644531 231.019531 L 201.699219 231.015625 L 201.703125 209.378906 C 223.660156 208.121094 239.023438 202.597656 240.933594 181.996094 C 242.476562 165.414062 234.667969 158.007812 222.203125 155.019531 C 229.78125 151.167969 234.507812 144.382812 233.402344 133.074219 Z M 215.125 179.429688 C 215.140625 195.628906 187.367188 193.785156 178.515625 193.792969 L 178.523438 165.070312 C 187.382812 165.074219 215.132812 162.53125 215.125 179.429688 Z M 209.054688 138.902344 C 209.054688 153.644531 185.894531 151.917969 178.53125 151.917969 L 178.527344 125.878906 C 185.894531 125.875 209.054688 123.527344 209.054688 138.902344 Z M 209.054688 138.902344 " fill-opacity="1" fill-rule="nonzero"/><g clip-path="url(#a57b74a01c)"><g clip-path="url(#52e420ec16)"><path fill="#e7191f" d="M 156.644531 134.730469 L 172.339844 134.730469 L 172.339844 164.59375 L 156.644531 164.59375 Z M 156.644531 134.730469 " fill-opacity="1" fill-rule="nonzero"/></g></g><g clip-path="url(#a95db7f785)"><g clip-path="url(#0e32685dcb)"><path fill="#f7931a" d="M 101.730469 80.410156 L 258.320312 80.410156 L 258.320312 259.445312 L 101.730469 259.445312 Z M 101.730469 80.410156 " fill-opacity="1" fill-rule="nonzero"/></g></g><g fill="#ffffff" fill-opacity="1"><g transform="translate(116.761432, 230.444059)"><g><path d="M 70.734375 -173.484375 C 76.191406 -173.484375 80.859375 -171.539062 84.734375 -167.65625 C 88.617188 -163.78125 90.5625 -159.113281 90.5625 -153.65625 C 90.5625 -148.320312 88.617188 -143.710938 84.734375 -139.828125 C 80.859375 -135.953125 76.191406 -134.015625 70.734375 -134.015625 C 65.273438 -134.015625 60.609375 -135.921875 56.734375 -139.734375 C 52.859375 -143.554688 50.921875 -148.195312 50.921875 -153.65625 C 50.921875 -159.113281 52.859375 -163.78125 56.734375 -167.65625 C 60.609375 -171.539062 65.273438 -173.484375 70.734375 -173.484375 Z M 70.734375 -160.9375 C 68.554688 -160.9375 66.800781 -160.238281 65.46875 -158.84375 C 64.132812 -157.445312 63.46875 -155.65625 63.46875 -153.46875 C 63.46875 -151.414062 64.160156 -149.722656 65.546875 -148.390625 C 66.941406 -147.054688 68.671875 -146.390625 70.734375 -146.390625 C 72.921875 -146.390625 74.679688 -147.082031 76.015625 -148.46875 C 77.347656 -149.863281 78.015625 -151.65625 78.015625 -153.84375 C 78.015625 -155.90625 77.316406 -157.601562 75.921875 -158.9375 C 74.523438 -160.269531 72.796875 -160.9375 70.734375 -160.9375 Z M 97.28125 0 L 92.015625 -17.640625 L 48.1875 -17.640625 L 42.921875 0 L 1.8125 0 L 47.46875 -125.109375 L 94.1875 -125.109375 L 139.84375 0 Z M 56.546875 -45.640625 L 83.640625 -45.640625 L 70.5625 -90.1875 L 69.828125 -90.1875 Z M 56.546875 -45.640625 "/></g></g></g></svg>